<?xml version="1.0" encoding="UTF-8" standalone="no"?>
<svg
   width="64"
   height="64"
   fill="currentColor"
   class="bi bi-pencil"
   viewBox="0 0 64 64"
   version="1.1"
   id="svg1"
   sodipodi:docname="pencil[1].svg"
   xmlns:inkscape="http://www.inkscape.org/namespaces/inkscape"
   xmlns:sodipodi="http://sodipodi.sourceforge.net/DTD/sodipodi-0.dtd"
   xmlns="http://www.w3.org/2000/svg"
   xmlns:svg="http://www.w3.org/2000/svg">
  <defs
     id="defs1" />
  <sodipodi:namedview
     id="namedview1"
     pagecolor="#ffffff"
     bordercolor="#000000"
     borderopacity="0.25"
     inkscape:showpageshadow="2"
     inkscape:pageopacity="0.0"
     inkscape:pagecheckerboard="0"
     inkscape:deskcolor="#d1d1d1" />
  <circle
     style="fill:#ffa500;fill-opacity:1;stroke-width:7.55733;stroke-linecap:round"
     id="path2"
     cx="32"
     cy="32"
     r="32" />
  <path
     d="m 41.618196,13.778583 a 1.160089,1.160089 0 0 1 1.642686,0 l 6.960534,6.960534 a 1.160089,1.160089 0 0 1 0,1.642686 l -23.20178,23.20178 a 1.160089,1.160089 0 0 1 -0.38979,0.25522 l -11.60089,4.640356 A 1.160089,1.160089 0 0 1 13.52084,48.971043 l 4.640356,-11.60089 a 1.160089,1.160089 0 0 1 0.25522,-0.38979 z m -2.178647,5.461699 5.320168,5.320168 2.99999,-2.99999 -5.320168,-5.320168 z m 3.679802,6.960534 -5.320168,-5.320168 -15.081157,15.081157 v 0.679812 h 1.160089 a 1.160089,1.160089 0 0 1 1.160089,1.160089 v 1.160089 h 1.160089 a 1.160089,1.160089 0 0 1 1.160089,1.160089 v 1.160089 h 0.679812 z m -22.647258,12.006921 -0.245938,0.245939 -3.545232,8.8654 8.8654,-3.545232 0.245939,-0.245938 a 1.160089,1.160089 0 0 1 -0.754058,-1.085844 v -1.160089 h -1.160089 a 1.160089,1.160089 0 0 1 -1.160089,-1.160089 v -1.160089 h -1.160089 a 1.160089,1.160089 0 0 1 -1.085844,-0.754058 z"
     id="path1"
     style="fill:#ffffff;fill-opacity:1;stroke-width:2.32018" />
</svg>
