<?xml version="1.0" encoding="UTF-8" standalone="no"?>
<svg
   width="64"
   height="64"
   fill="currentColor"
   class="bi bi-paperclip"
   viewBox="0 0 64 64"
   version="1.1"
   id="svg1"
   sodipodi:docname="cat2[1].svg"
   xmlns:inkscape="http://www.inkscape.org/namespaces/inkscape"
   xmlns:sodipodi="http://sodipodi.sourceforge.net/DTD/sodipodi-0.dtd"
   xmlns="http://www.w3.org/2000/svg"
   xmlns:svg="http://www.w3.org/2000/svg">
  <defs
     id="defs1" />
  <sodipodi:namedview
     id="namedview1"
     pagecolor="#ffffff"
     bordercolor="#000000"
     borderopacity="0.25"
     inkscape:showpageshadow="2"
     inkscape:pageopacity="0.0"
     inkscape:pagecheckerboard="0"
     inkscape:deskcolor="#d1d1d1" />
  <circle
     style="fill:#ffa500;fill-opacity:1;stroke-width:2.5506;stroke-linecap:round"
     id="path3"
     cx="32"
     cy="32"
     r="32" />
  <path
     d="m 21,15.999999 a 7.857143,7.9999999 0 0 1 15.714286,0 V 44.8 a 4.714286,4.8000001 0 0 1 -9.428572,0 V 22.399999 a 1.571429,1.6000004 0 0 1 3.142858,0 V 44.8 a 1.5714286,1.6 0 0 0 3.142856,0 V 15.999999 a 4.7142859,4.8 0 1 0 -9.428571,0 V 44.8 a 7.8571434,8.0000003 0 0 0 15.714286,0 V 22.399999 a 1.5714286,1.6 0 0 1 3.142857,0 V 44.8 a 11,11.2 0 1 1 -22,0 z"
     id="path1"
     style="fill:#ffffff;fill-opacity:1;stroke-width:3.1713" />
</svg>
