<?xml version="1.0" encoding="UTF-8" standalone="no"?>
<svg
   width="64"
   height="64"
   fill="currentColor"
   class="bi bi-hand-index-thumb"
   viewBox="0 0 64 64"
   version="1.1"
   id="svg1"
   sodipodi:docname="cat3[1].svg"
   xmlns:inkscape="http://www.inkscape.org/namespaces/inkscape"
   xmlns:sodipodi="http://sodipodi.sourceforge.net/DTD/sodipodi-0.dtd"
   xmlns="http://www.w3.org/2000/svg"
   xmlns:svg="http://www.w3.org/2000/svg">
  <defs
     id="defs1" />
  <sodipodi:namedview
     id="namedview1"
     pagecolor="#ffffff"
     bordercolor="#000000"
     borderopacity="0.25"
     inkscape:showpageshadow="2"
     inkscape:pageopacity="0.0"
     inkscape:pagecheckerboard="0"
     inkscape:deskcolor="#d1d1d1" />
  <circle
     style="fill:#ffa500;fill-opacity:1;stroke-width:9.83364;stroke-linecap:round"
     id="path2"
     cx="32"
     cy="32"
     r="32" />
  <path
     d="m 28.37189,14.500903 a 1.701629,1.8749559 0 0 1 1.701629,1.874955 v 15.624633 a 1.1344197,1.249971 0 0 0 2.268839,0 V 25.66814 l 0.195119,-0.01001 c 0.719223,-0.03 1.445252,-0.02 1.851374,0.0675 0.304024,0.0675 0.667038,0.239994 1.016439,0.454989 0.174701,0.104997 0.340326,0.367491 0.340326,0.784981 v 5.034882 a 1.1344193,1.2499706 0 0 0 2.268838,0 v -3.912408 l 0.240497,-0.025 c 0.716954,-0.06 1.325002,-0.025 1.606338,0.100003 0.267723,0.114997 0.680652,0.517488 1.102656,1.074975 0.183775,0.239994 0.340325,0.474989 0.453767,0.647485 v 3.364921 a 1.1344199,1.2499712 0 1 0 2.268839,0 v -2.499942 h 0.775943 a 2.2688387,2.4999412 0 0 1 2.257494,2.749935 l -0.614855,6.787341 a 5.6720967,6.2498529 0 0 1 -0.719222,2.477442 l -3.165029,6.104856 a 1.1344193,1.2499706 0 0 1 -0.984677,0.629985 H 26.937984 a 1.1344193,1.2499706 0 0 1 -1.014171,-0.68998 L 23.128605,42.64774 17.429281,32.185487 a 1.1729896,1.2924696 0 0 1 1.835491,-1.577463 l 5.467902,6.024858 a 1.1344193,1.2499706 0 0 0 1.937588,-0.882479 V 16.375858 a 1.701629,1.8749559 0 0 1 1.701628,-1.874955 m 3.970468,8.664796 v -6.789841 a 3.9704676,4.3748971 0 1 0 -7.940935,0 v 16.357116 l -3.532581,-3.892409 a 3.4418282,3.7924107 0 0 0 -5.383956,4.629891 l 5.651678,10.382256 2.756638,6.074856 a 3.4032579,3.7499117 0 0 0 3.044782,2.072452 h 14.298221 a 3.4032579,3.7499117 0 0 0 2.954028,-1.889955 l 3.16503,-6.102356 a 7.9409352,8.749794 0 0 0 1.007364,-3.472419 l 0.614855,-6.78734 A 4.5376773,4.9998823 0 0 0 44.462494,28.250579 H 43.144299 A 11.602841,12.784699 0 0 0 42.701875,27.630594 C 42.268527,27.058107 41.544767,26.210628 40.705297,25.840636 39.87944,25.475644 38.78586,25.510643 38.077982,25.570643 l -0.299487,0.03 a 2.8587367,3.1499259 0 0 0 -1.27055,-1.604962 5.9715833,6.5798451 0 0 0 -1.674402,-0.719983 C 34.130202,23.120701 33.156871,23.130701 32.451263,23.1607 Z m 4.750948,5.062381"
     id="path1"
     style="fill:#ffffff;fill-opacity:1;stroke-width:2.3816" />
</svg>
