<?xml version="1.0" encoding="UTF-8" standalone="no"?>
<svg
   width="64.000008"
   height="64"
   fill="currentColor"
   class="bi bi-balloon"
   viewBox="0 0 64.000008 64"
   version="1.1"
   id="svg1"
   sodipodi:docname="cat4[1].svg"
   xmlns:inkscape="http://www.inkscape.org/namespaces/inkscape"
   xmlns:sodipodi="http://sodipodi.sourceforge.net/DTD/sodipodi-0.dtd"
   xmlns="http://www.w3.org/2000/svg"
   xmlns:svg="http://www.w3.org/2000/svg">
  <defs
     id="defs1" />
  <sodipodi:namedview
     id="namedview1"
     pagecolor="#ffffff"
     bordercolor="#000000"
     borderopacity="0.25"
     inkscape:showpageshadow="2"
     inkscape:pageopacity="0.0"
     inkscape:pagecheckerboard="0"
     inkscape:deskcolor="#d1d1d1" />
  <circle
     style="fill:#ffa500;stroke-width:5.1012;stroke-linecap:round"
     id="path2"
     cx="32"
     cy="32"
     r="32" />
  <path
     fill-rule="evenodd"
     d="M 32,38.608743 C 39.530577,37.110775 44.535292,30.76165 44.535292,22.989768 a 12.535292,12.535292 0 0 0 -25.070584,0 c 0,7.771882 5.004715,14.121007 12.535292,15.618975 M 47.669116,22.989768 c 0,8.890657 -5.60641,16.380494 -14.164881,18.492691 l 0.764653,1.526172 a 0.78483348,0.78483348 0 1 1 -1.403953,0.701975 l -0.02507,-0.05328 c 0.02507,0.34472 0.06267,0.633032 0.115952,0.908809 0.169227,0.846131 0.504546,1.529305 1.313072,3.143224 0.902541,1.81135 0.736449,3.603896 0.238171,5.104997 -0.492011,1.469764 -1.322474,2.717025 -1.842689,3.494214 l -0.01254,0.02193 a 0.78398837,0.78398837 0 1 1 -1.30367,-0.871202 c 0.526482,-0.789724 1.253529,-1.880294 1.670328,-3.143225 0.416798,-1.240994 0.510812,-2.58227 -0.153558,-3.904744 l -0.04074,-0.08774 C 32.072074,46.819355 31.633339,45.948152 31.420239,44.870118 A 9.9561563,9.9561563 0 0 1 31.25728,43.459897 l -0.125353,0.250705 a 0.7834558,0.7834558 0 1 1 -1.400815,-0.701971 l 0.764653,-1.526172 C 21.937294,39.370262 16.330884,31.880425 16.330884,22.989768 a 15.669116,15.669116 0 0 1 31.338232,0 M 25.926651,21.438525 a 6.2770479,6.2770479 0 0 1 4.522107,-4.522107 C 31.288622,16.703319 32,16.020145 32,15.15521 32,14.290274 31.291756,13.575762 30.439356,13.716785 a 9.4108711,9.4108711 0 0 0 -7.709205,7.712339 c -0.144156,0.8524 0.570355,1.560644 1.435291,1.560644 0.864935,0 1.548109,-0.711378 1.761209,-1.551243"
     id="path1"
     style="fill:#ffffff;fill-opacity:1;stroke-width:3.13383" />
</svg>
