<?xml version="1.0" encoding="UTF-8" standalone="no"?>
<svg
   width="64"
   height="64"
   fill="currentColor"
   class="bi bi-brush"
   viewBox="0 0 64 64"
   version="1.1"
   id="svg1"
   sodipodi:docname="cat5[1].svg"
   xmlns:inkscape="http://www.inkscape.org/namespaces/inkscape"
   xmlns:sodipodi="http://sodipodi.sourceforge.net/DTD/sodipodi-0.dtd"
   xmlns="http://www.w3.org/2000/svg"
   xmlns:svg="http://www.w3.org/2000/svg">
  <defs
     id="defs1" />
  <sodipodi:namedview
     id="namedview1"
     pagecolor="#ffffff"
     bordercolor="#000000"
     borderopacity="0.25"
     inkscape:showpageshadow="2"
     inkscape:pageopacity="0.0"
     inkscape:pagecheckerboard="0"
     inkscape:deskcolor="#d1d1d1" />
  <circle
     style="fill:#ffa500;fill-opacity:1;stroke-width:2.36531;stroke-linecap:round"
     id="path2"
     cx="32"
     cy="32"
     r="32" />
  <path
     d="m 49.076768,14.823859 a 1.1105095,1.1105095 0 0 1 0.293175,1.297075 C 45.971784,23.739029 38.83565,34.266659 33.611813,39.752576 a 13.474922,13.474922 0 0 1 -5.270478,3.407043 c -0.03998,0.504171 -0.133261,1.194908 -0.355363,1.927844 -0.446425,1.463652 -1.48142,3.284887 -3.793501,3.864573 a 18.030232,18.030232 0 0 1 -6.836296,0.293175 8.1267085,8.1267085 0 0 1 -1.248213,-0.299838 3.0694483,3.0694483 0 0 1 -1.034995,-0.548591 1.5858076,1.5858076 0 0 1 -0.453088,-0.639654 1.3814738,1.3814738 0 0 1 0.0089,-0.983911 c 0.210996,-0.54415 0.701842,-0.843987 1.023889,-1.003901 0.875082,-0.437541 1.388137,-1.006122 1.925624,-1.834562 0.210997,-0.319826 0.408667,-0.659642 0.637432,-1.048321 l 0.259859,-0.439761 c 0.335374,-0.56636 0.724053,-1.199351 1.212677,-1.883424 1.172698,-1.641334 2.667444,-2.054443 3.877899,-1.990034 0.279848,0.01555 0.539708,0.05553 0.772915,0.106609 0.137703,-0.382015 0.315384,-0.843987 0.528602,-1.350379 0.579686,-1.374811 1.461431,-3.151626 2.63635,-4.595288 4.832937,-5.930121 13.725897,-13.783644 20.24903,-17.999138 a 1.1105095,1.1105095 0 0 1 1.323727,0.08884 z M 24.379037,41.014114 A 2.7318534,2.7318534 0 0 0 23.44843,40.792013 c -0.546371,-0.02887 -1.272644,0.11105 -1.952276,1.063868 -0.43754,0.61078 -0.788461,1.181582 -1.110509,1.725731 l -0.233207,0.393121 c -0.235428,0.402004 -0.473077,0.804009 -0.710726,1.172698 a 7.5292544,7.5292544 0 0 1 -1.687975,1.912297 c 1.532503,0.248754 3.855689,0.246533 5.901248,-0.266522 1.241549,-0.308722 1.872319,-1.26376 2.205472,-2.35428 a 6.9340213,6.9340213 0 0 0 0.279848,-1.665765 z m 3.198267,0.05775 c 0.266523,-0.08884 0.615223,-0.222101 1.017227,-0.406446 a 11.256124,11.256124 0 0 0 3.409264,-2.443121 c 4.219936,-4.433154 9.799136,-12.371076 13.441607,-19.169614 -5.752439,4.279903 -12.362192,10.349948 -16.217881,15.08516 -0.98169,1.206014 -1.76571,2.760727 -2.314301,4.055581 -0.268744,0.639653 -0.475298,1.19935 -0.610781,1.599134 v 0.0022 l 1.277086,1.277085 z m -11.045127,6.751898 0.01555,-0.01111 a 0.06885159,0.06885159 0 0 1 -0.01555,0.0089 z m 7.95569,-6.758561 0.0044,0.0022 h -0.0044 z"
     id="path1"
     style="fill:#ffffff;fill-opacity:1;stroke-width:2.22102" />
</svg>
