<?xml version="1.0" encoding="UTF-8" standalone="no"?>
<svg
   width="64.000008"
   height="64"
   fill="currentColor"
   class="bi bi-gift"
   viewBox="0 0 64.000008 64"
   version="1.1"
   id="svg1"
   sodipodi:docname="cat6[1].svg"
   xmlns:inkscape="http://www.inkscape.org/namespaces/inkscape"
   xmlns:sodipodi="http://sodipodi.sourceforge.net/DTD/sodipodi-0.dtd"
   xmlns="http://www.w3.org/2000/svg"
   xmlns:svg="http://www.w3.org/2000/svg">
  <defs
     id="defs1" />
  <sodipodi:namedview
     id="namedview1"
     pagecolor="#ffffff"
     bordercolor="#000000"
     borderopacity="0.25"
     inkscape:showpageshadow="2"
     inkscape:pageopacity="0.0"
     inkscape:pagecheckerboard="0"
     inkscape:deskcolor="#d1d1d1" />
  <circle
     style="fill:#ffa500;fill-opacity:1;stroke-width:4.91682;stroke-linecap:round"
     id="path2"
     cx="32"
     cy="32"
     r="32" />
  <path
     d="m 19.664983,18.43148 a 6.1675086,6.1675086 0 0 1 12.335017,0 6.1675086,6.1675086 0 0 1 12.335017,0 v 0.0148 c 0,0.17269 0,0.666091 -0.09375,1.2187 h 5.027753 a 2.4670035,2.4670035 0 0 1 2.467004,2.467003 v 4.934008 a 2.4670035,2.4670035 0 0 1 -2.467004,2.467003 v 18.502528 a 3.7005052,3.7005052 0 0 1 -3.700505,3.700504 H 18.431481 A 3.7005052,3.7005052 0 0 1 14.730976,48.035522 V 29.532996 a 2.4670035,2.4670035 0 0 1 -2.467004,-2.467003 v -4.934008 a 2.4670035,2.4670035 0 0 1 2.467004,-2.467003 h 5.027753 a 7.3220663,7.3220663 0 0 1 -0.09375,-1.2187 z m 2.634759,1.233502 h 7.233255 V 18.43148 a 3.7005055,3.7005055 0 1 0 -7.401011,0 c 0,0.209695 0.0049,0.675959 0.111015,1.060812 a 1.2877758,1.2877758 0 0 0 0.05674,0.17269 m 12.167261,0 h 7.233255 a 1.3815219,1.3815219 0 0 0 0.05674,-0.17269 c 0.106081,-0.384853 0.111015,-0.851117 0.111015,-1.060812 a 3.7005055,3.7005055 0 0 0 -7.401011,0 z m -19.736027,2.467003 v 4.934008 h 14.802021 v -4.934008 z m 19.736027,0 v 4.934008 H 49.269023 V 22.131985 Z M 46.80202,29.532996 H 34.467003 v 19.736027 h 11.101516 a 1.2335017,1.2335017 0 0 0 1.233502,-1.233501 z M 29.532997,49.269023 V 29.532996 H 17.197979 v 18.502526 a 1.2335017,1.2335017 0 0 0 1.233502,1.233501 z"
     id="path1"
     style="fill:#ffffff;fill-opacity:1;stroke-width:2.467" />
</svg>
